<svg xmlns="http://www.w3.org/2000/svg" xmlnsXlink="http://www.w3.org/1999/xlink" width="515.123" height="169.518" viewBox="0 0 515.123 169.518">
  <defs>
    <linearGradient id="linear-gradient" x1="0.5" x2="0.5" y2="1" gradientUnits="objectBoundingBox">
      <stop offset="0" stop-color="#003f76"/>
      <stop offset="1" stop-color="#fff"/>
    </linearGradient>
    <linearGradient id="linear-gradient-2" x1="0.5" x2="0.5" y2="1" gradientUnits="objectBoundingBox">
      <stop offset="0" stop-color="#5db4ff"/>
      <stop offset="1" stop-color="#fff"/>
    </linearGradient>
    <linearGradient id="linear-gradient-7" x1="0.672" y1="0.136" x2="0.246" y2="0.678" xlinkHref="#linear-gradient-2"/>
  </defs>
  <g id="Group_43" data-name="Group 43" transform="translate(-336.475 -280.827)">
    <g id="Group_42" data-name="Group 42" transform="translate(25 -5)">
      <g id="Group_38" data-name="Group 38" transform="translate(26.111)">
        <g id="Group_37" data-name="Group 37" transform="translate(47.392 50.423)">
          <g id="Group_36" data-name="Group 36" transform="translate(238.496 235.404)">
            <path id="Path_173" data-name="Path 173" d="M-13744.533-3676.679l76.889,47.324,76.488-46.115-70.691-45.184-63.082,32.951Z" transform="translate(13747.016 3787.532)" fill="#02264a"/>
            <path id="Path_172" data-name="Path 172" d="M-13635.771-3766.347l2.218,63.612,10.952,2.667-1.683-63.806-6.656-6.188Z" transform="translate(13706.271 3806.042)" fill="#02264a"/>
            <path id="Path_171" data-name="Path 171" d="M-13668.982-3783.816v41.581l17.514,37.053h12.316l-.795-61.43" transform="translate(13718.714 3811.195)" fill="url(#linear-gradient)"/>
            <g id="Group_35" data-name="Group 35">
              <path id="Path_157" data-name="Path 157" d="M-14264.383-2181.137l26.855-16.16-.316,48.831,10.9,15.663-35.35,53.024-30.016-14.7-5.883-3.215-23.564-17.787,7.66-14.479,15.9-4.869,26.889-16.138v35.487l7.541-10.471Z" transform="translate(14343.183 2225.744)" fill="#00264a"/>
              <path id="Path_148" data-name="Path 148" d="M0,0,30.92,9.505l8.014,30.716L8.407,32.644Z" transform="translate(49.728 27.53) rotate(-45)" fill="url(#linear-gradient-2)"/>
              <path id="Path_149" data-name="Path 149" d="M0,0,30.92,9.505l8.014,30.716L8.407,32.644Z" transform="translate(87.875 62.551) rotate(-45)" fill="url(#linear-gradient-2)"/>
              <path id="Path_152" data-name="Path 152" d="M-14597.984-2047.484l.047,49.329,26.77-16.471-.045-48.988Z" transform="translate(14714.977 2127.062)" fill="#02264a"/>
              <path id="Path_159" data-name="Path 159" d="M-13244.836-2104.856v36.579l28.764,17.864v-37.278Z" transform="translate(13261.209 2178.606)" fill="url(#linear-gradient)"/>
              <path id="Path_160" data-name="Path 160" d="M-13189.729-2044.733l28.937,16.839v21.512l-28.937-18.324Z" transform="translate(13241.189 2157.333)" fill="url(#linear-gradient)"/>
              <path id="Path_161" data-name="Path 161" d="M-13133.48-2127.9l29.176,17v49.423l-9.984-5.747-3.581-1.9-15.61-10.256Z" transform="translate(13221.368 2190.45)" fill="url(#linear-gradient)"/>
              <path id="Path_162" data-name="Path 162" d="M0,0,20.432,6.281l5.3,20.3L19,7.716Z" transform="translate(59.221 27.685) rotate(-45)" fill="#1469b1"/>
              <path id="Path_163" data-name="Path 163" d="M0,0,20.432,6.281l5.3,20.3L19,7.716Z" transform="translate(97.456 62.706) rotate(-45)" fill="#1469b1"/>
              <path id="Path_165" data-name="Path 165" d="M0,0,30.92,9.505l8.014,30.716L8.407,32.644Z" transform="translate(51.395 112.581) rotate(-45)" fill="url(#linear-gradient-7)"/>
              <path id="Path_166" data-name="Path 166" d="M0,0,20.432,6.281l5.3,20.3-6.4-19.2Z" transform="translate(61.221 112.199) rotate(-45)" fill="#1469b1"/>
              <path id="Path_167" data-name="Path 167" d="M0,0,30.92,9.505l8.014,30.716L8.407,32.644Z" transform="translate(15.957 73.808) rotate(-45)" fill="url(#linear-gradient-2)"/>
              <path id="Path_168" data-name="Path 168" d="M0,0,20.432,6.281l5.3,20.3L19,7.716Z" transform="translate(25.45 73.963) rotate(-45)" fill="#1469b1"/>
              <path id="Path_169" data-name="Path 169" d="M-14597.962-2047.058l-.187,21.228,26.771-16.471.188-20.887Z" transform="translate(14678.558 2176.754)" fill="#02264a"/>
              <path id="Path_170" data-name="Path 170" d="M-14427.531-1991.73l-3.365-2.071,1.049-1.7,2.32,1.428.895-.547,1.043,1.707Zm6.208-3.793-1.043-1.707,4.268-2.607,1.042,1.707Zm-13.831-.9-4.258-2.621,1.048-1.7,4.258,2.621Zm22.364-4.314-1.042-1.707,4.267-2.607,1.043,1.707Zm-30.881-.928-4.258-2.621,1.049-1.7,4.258,2.621Zm39.415-4.285-1.043-1.707,4.267-2.607,1.043,1.707Zm-47.931-.957-4.258-2.621,1.048-1.7,4.259,2.621Zm56.464-4.257-1.043-1.707,4.268-2.607,1.042,1.707Zm-64.979-.985-4.259-2.621,1.049-1.7,4.258,2.621Zm73.513-4.228-1.042-1.707,4.267-2.607,1.043,1.707Zm-82.029-1.014-4.258-2.621,1.048-1.7,4.259,2.621Zm90.563-4.2-1.043-1.707,4.267-2.607,1.043,1.707Zm-99.079-1.042-4.258-2.621,1.048-1.7,4.258,2.621Zm107.612-4.171-1.042-1.707,4.267-2.607,1.042,1.707Zm-116.129-1.071-4.258-2.621,1.049-1.7,4.258,2.621Zm124.663-4.142-1.043-1.707,4.267-2.607,1.043,1.707Zm-133.179-1.1-4.258-2.621,1.048-1.7,4.258,2.621Zm141.712-4.114-1.043-1.707,4.267-2.607,1.043,1.707Zm-150.229-1.128-4.258-2.621,1.049-1.7,4.258,2.621Z" transform="translate(14507.017 2161.249)" fill="#060203"/>
            </g>
          </g>
        </g>
      </g>
    </g>
    <path id="Path_174" data-name="Path 174" d="M5.9-47.453a5.406,5.406,0,0,1,1.264-3.924,5.322,5.322,0,0,1,3.95-1.29h12.9A25.558,25.558,0,0,1,33.285-51.3a9.171,9.171,0,0,1,4.977,4.424A18.407,18.407,0,0,1,39.816-38.6v5.056q0,5.9-2.607,8.822T28.6-20.909L42.344,0H35.6L19.592-25.175h3.265a22.585,22.585,0,0,0,6.636-.764,5.625,5.625,0,0,0,3.371-2.554,10.484,10.484,0,0,0,1-5.056V-38.6a10.98,10.98,0,0,0-.948-5.056A5.381,5.381,0,0,0,29.7-46.215a21.034,21.034,0,0,0-6.425-.764H13.957a2.44,2.44,0,0,0-1.685.421,2.44,2.44,0,0,0-.421,1.685V0H5.9ZM56.248-7.795a2.44,2.44,0,0,0,.421,1.685,2.44,2.44,0,0,0,1.685.421H82.213V0h-26.7a5.406,5.406,0,0,1-3.924-1.264,5.322,5.322,0,0,1-1.29-3.95V-47.453a5.406,5.406,0,0,1,1.264-3.924,5.322,5.322,0,0,1,3.95-1.29h26.7v5.688H58.355a2.44,2.44,0,0,0-1.685.421,2.44,2.44,0,0,0-.421,1.685v15.326H81.107v5.267H56.248ZM98.7-52.667V0H92.746V-52.667Zm23.963,5.688h-15.8v-5.688h37.446v5.688H128.612V0h-5.951ZM147.414-5.688h14.957a27.547,27.547,0,0,0,4.345-.263,4.03,4.03,0,0,0,2.344-1.106,3.662,3.662,0,0,0,.79-2.581,4.6,4.6,0,0,0-1.317-3.634,10.4,10.4,0,0,0-4.845-1.791l-6.952-1.264a23.188,23.188,0,0,1-6.162-1.843,6.614,6.614,0,0,1-3.107-3.16,13.863,13.863,0,0,1-.948-5.688q0-5.477,3-7.663T159-36.867h15.221v5.688H160a22.342,22.342,0,0,0-4.5.342,3.757,3.757,0,0,0-2.291,1.317,4.709,4.709,0,0,0-.737,2.87,4.219,4.219,0,0,0,1.159,3.239,8.513,8.513,0,0,0,4.266,1.606l6.741,1.211A27.178,27.178,0,0,1,171.4-18.67a7.042,7.042,0,0,1,3.4,3.292,14.256,14.256,0,0,1,1.053,6.109,10.012,10.012,0,0,1-1.369,5.688A7.13,7.13,0,0,1,170.561-.79a22.888,22.888,0,0,1-6.61.79H147.414ZM211.035,0a5.406,5.406,0,0,1-3.924-1.264,5.322,5.322,0,0,1-1.29-3.95V-47.453a5.406,5.406,0,0,1,1.264-3.924,5.322,5.322,0,0,1,3.95-1.29h11.323q9.691,0,14.773,4.161t5.082,14.115v16.116q0,9.006-4.635,13.641T222.359,0Zm.737-7.795a2.44,2.44,0,0,0,.421,1.685,2.44,2.44,0,0,0,1.685.421h8.479q7.163,0,10.533-2.87t3.371-9.717V-34.391q0-6.478-3.213-9.533t-10.691-3.055h-8.479a2.44,2.44,0,0,0-1.685.421,2.44,2.44,0,0,0-.421,1.685Zm51.561-39.763a7.5,7.5,0,0,1,2.186-3.924,6.4,6.4,0,0,1,4.292-1.29,6.387,6.387,0,0,1,4.161,1.211,7.547,7.547,0,0,1,2.212,4.055L292.3,0h-6.32L270.443-46.083a.632.632,0,0,0-.632-.527.632.632,0,0,0-.632.527L253.643,0h-6.425ZM314.683.263a23.187,23.187,0,0,1-9.954-1.817,11.4,11.4,0,0,1-5.583-5.741,25.032,25.032,0,0,1-1.791-10.3V-35.076a25.032,25.032,0,0,1,1.791-10.3,11.4,11.4,0,0,1,5.583-5.741,23.187,23.187,0,0,1,9.954-1.817h2.475a23.187,23.187,0,0,1,9.954,1.817,11.4,11.4,0,0,1,5.583,5.741,25.032,25.032,0,0,1,1.791,10.3v17.485a25.032,25.032,0,0,1-1.791,10.3,11.4,11.4,0,0,1-5.583,5.741A23.187,23.187,0,0,1,317.159.263Zm1.264-5.635A19.429,19.429,0,0,0,323.4-6.531a7.34,7.34,0,0,0,3.924-3.792,17.751,17.751,0,0,0,1.211-7.268V-35.076a17.751,17.751,0,0,0-1.211-7.268,7.34,7.34,0,0,0-3.924-3.792,19.429,19.429,0,0,0-7.452-1.159,19.6,19.6,0,0,0-7.505,1.159,7.34,7.34,0,0,0-3.924,3.792,17.751,17.751,0,0,0-1.211,7.268v17.485a17.751,17.751,0,0,0,1.211,7.268,7.34,7.34,0,0,0,3.924,3.792A19.6,19.6,0,0,0,315.947-5.372Z" transform="translate(517.111 398.5)" fill="#02264a"/>
  </g>
</svg>